<svg width="468" height="118" viewBox="0 0 468 118" fill="none" xmlns="http://www.w3.org/2000/svg">
<path d="M56.7636 13.7401L94.2578 31.1557C98.7762 33.2545 101.429 38.0241 100.83 42.9699L95.8527 84.0108C95.2529 88.9566 91.5367 92.9538 86.6475 93.9118L46.0774 101.861C41.1883 102.819 36.2383 100.52 33.8165 96.1657L13.7197 60.0376C11.2978 55.6838 11.9548 50.2656 15.3472 46.6169L43.4968 16.3395C46.8891 12.6907 52.2451 11.6413 56.7636 13.7401Z" fill="url(#paint0_linear_107_13)" stroke="#7EA2FF"/>
<path d="M118.472 65.64C118.536 77.352 127.816 81.96 138.312 81.96C148.36 81.96 158.216 78.248 158.216 66.664C158.216 58.408 151.56 55.336 144.968 53.48C138.312 51.624 131.72 50.984 131.72 47.464C131.72 44.456 134.92 43.56 137.48 43.56C141.128 43.56 145.032 44.904 144.84 49.064H156.744C156.68 38.76 147.528 34.344 138.44 34.344C129.864 34.344 119.816 38.248 119.816 48.232C119.816 56.616 126.664 59.56 133.192 61.416C139.784 63.272 146.312 64.04 146.312 68.072C146.312 71.464 142.6 72.744 139.016 72.744C133.96 72.744 130.632 71.016 130.376 65.64H118.472ZM160.647 81H171.847V46.312H171.976L181.576 81H190.664L200.264 46.312H200.392V81H211.592V35.304H194.056L186.184 65.768H186.056L178.184 35.304H160.647V81ZM235.001 47.976H235.129L240.185 63.976H229.817L235.001 47.976ZM211.961 81H224.185L227.065 72.808H243.001L245.818 81H258.234L241.146 35.304H229.049L211.961 81ZM258.496 81H270.4V64.36H279.424C284.992 64.36 285.76 69.096 286.08 73.704C286.208 74.984 286.4 79.464 287.424 81H299.2C297.6 79.336 297.408 72.616 297.28 70.696C296.896 66.344 295.488 60.904 290.624 59.752V59.624C295.424 57.768 297.792 53.096 297.792 48.168C297.792 38.952 289.856 35.304 281.792 35.304H258.496V81ZM270.4 44.84H279.872C283.2 44.84 285.888 46.376 285.888 49.768C285.888 53.224 283.968 55.144 280.384 55.144H270.4V44.84ZM336.583 35.304H297.414V45.544H311.046V81H322.95V45.544H336.583V35.304ZM338.659 81H375.715V70.76H350.562V62.056H372.963V52.84H350.562V44.84H375.075V35.304H338.659V81ZM421.511 51.624C421.191 40.616 410.503 34.344 400.647 34.344C386.823 34.344 377.863 44.904 377.863 58.152C377.863 71.4 386.823 81.96 400.647 81.96C412.231 81.96 420.871 75.048 421.511 63.272H409.607C409.159 68.52 405.959 71.72 400.391 71.72C392.711 71.72 389.767 64.936 389.767 58.152C389.767 51.368 392.711 44.584 400.391 44.584C405.383 44.584 408.967 47.016 409.607 51.624H421.511ZM424.506 81H436.41V62.184H452.09V81H463.994V35.304H452.09V51.944H436.41V35.304H424.506V81Z" fill="#060606"/>
<g style="mix-blend-mode:overlay">
<mask id="mask0_107_13" style="mask-type:alpha" maskUnits="userSpaceOnUse" x="11" y="12" width="91" height="91">
<path d="M56.7636 13.7401L94.2578 31.1557C98.7762 33.2545 101.429 38.0241 100.83 42.9699L95.8527 84.0108C95.2529 88.9566 91.5367 92.9538 86.6475 93.9118L46.0774 101.861C41.1883 102.819 36.2383 100.52 33.8165 96.1657L13.7197 60.0376C11.2978 55.6838 11.9548 50.2656 15.3472 46.6169L43.4968 16.3395C46.8891 12.6907 52.2451 11.6413 56.7636 13.7401Z" fill="url(#paint1_linear_107_13)" stroke="#7EA2FF"/>
</mask>
<g mask="url(#mask0_107_13)">
<path d="M19 73.754C19.1288 97.6129 37.8084 107 58.9356 107C79.161 107 99 99.4382 99 75.8401C99 59.0215 85.6022 52.7634 72.3333 48.9825C58.9356 45.2016 45.6667 43.8979 45.6667 36.7271C45.6667 30.5995 52.1079 28.7742 57.2609 28.7742C64.6039 28.7742 72.4622 31.5121 72.0757 39.9866H96.037C95.9082 18.996 77.4863 10 59.1932 10C41.9308 10 21.7053 17.953 21.7053 38.2917C21.7053 55.371 35.4895 61.3683 48.6296 65.1492C61.8985 68.9301 75.0386 70.4946 75.0386 78.7083C75.0386 85.6183 67.5668 88.2258 60.3527 88.2258C50.1755 88.2258 43.4766 84.7056 42.9614 73.754H19Z" fill="white"/>
</g>
</g>
<path d="M56.7636 13.7401L94.2578 31.1557C98.7762 33.2545 101.429 38.0241 100.83 42.9699L95.8527 84.0108C95.2529 88.9566 91.5367 92.9538 86.6475 93.9118L46.0774 101.861C41.1883 102.819 36.2383 100.52 33.8165 96.1657L13.7197 60.0376C11.2978 55.6838 11.9548 50.2656 15.3472 46.6169L43.4968 16.3395C46.8891 12.6907 52.2451 11.6413 56.7636 13.7401Z" stroke="#7EA2FF"/>
<defs>
<linearGradient id="paint0_linear_107_13" x1="16.4816" y1="18.0865" x2="96.4561" y2="100.142" gradientUnits="userSpaceOnUse">
<stop stop-color="#1455FB"/>
<stop offset="1" stop-color="#011851"/>
</linearGradient>
<linearGradient id="paint1_linear_107_13" x1="16.4816" y1="18.0865" x2="96.4561" y2="100.142" gradientUnits="userSpaceOnUse">
<stop stop-color="#1455FB"/>
<stop offset="1" stop-color="#011851"/>
</linearGradient>
</defs>
</svg>
