<svg width="272" height="69" viewBox="0 0 272 69" fill="none" xmlns="http://www.w3.org/2000/svg">
<path d="M27.3328 26.2654C32.3375 14.3359 49.5351 11.1823 58.4543 20.6513C67.4577 29.0289 65.1142 45.4812 54.2055 51.0279C55.2312 44.3168 52.9662 37.3841 48.428 32.6454C43.2322 26.9949 34.8216 24.4586 27.3328 26.2626V26.2654ZM51.5696 47.7846C51.5752 40.431 47.3995 33.8546 40.9644 30.6113C43.797 45.2932 29.6089 59.1698 14.8814 55.9125C17.9977 62.5197 24.5452 66.9049 32.1212 66.9947C42.6954 67.25 51.7129 58.2103 51.5668 47.7846H51.5696ZM28.1617 43.8202C16.0447 41.7244 7.69606 28.8886 10.8293 16.903C-0.899938 21.9868 -3.77185 39.219 5.5379 47.8238C13.9203 56.7036 29.9433 54.5882 35.7574 43.9437C33.2901 44.3393 30.6037 44.2887 28.1646 43.8202H28.1617ZM13.0801 22.1271C13.0801 29.3151 17.0564 35.7568 23.261 39.0815C19.4787 24.1387 33.8185 9.23799 49.0069 12.5458C39.3065 -4.3581 13.038 2.64761 13.0801 22.1299V22.1271Z" fill="#1A34C0"/>
<path d="M94.384 27.552V11.232C94.384 9.76 94.224 8.704 93.904 8.064C93.648 7.424 93.232 7.104 92.656 7.104H92.272C91.696 7.104 91.248 7.424 90.928 8.064C90.672 8.64 90.544 9.696 90.544 11.232V18.816C90.544 20.992 90.832 22.912 91.408 24.576C92.048 26.24 92.816 27.808 93.712 29.28C94.672 30.688 95.664 32.064 96.688 33.408C97.776 34.688 98.768 36.064 99.664 37.536C100.624 39.008 101.392 40.576 101.968 42.24C102.608 43.904 102.928 45.824 102.928 48V58.272C102.928 60 102.64 61.504 102.064 62.784C101.552 64.064 100.848 65.12 99.952 65.952C99.056 66.72 98.032 67.296 96.88 67.68C95.728 68.064 94.544 68.256 93.328 68.256H91.792C90.64 68.256 89.456 68.064 88.24 67.68C87.088 67.296 86.032 66.72 85.072 65.952C84.176 65.12 83.44 64.064 82.864 62.784C82.288 61.504 82 60 82 58.272V40.608H89.776V57.024C89.776 58.496 89.968 59.552 90.352 60.192C90.736 60.832 91.28 61.152 91.984 61.152H92.272C93.68 61.152 94.384 59.776 94.384 57.024V49.344C94.384 47.232 94.064 45.344 93.424 43.68C92.848 42.016 92.08 40.48 91.12 39.072C90.224 37.6 89.232 36.224 88.144 34.944C87.12 33.6 86.128 32.224 85.168 30.816C84.272 29.344 83.504 27.776 82.864 26.112C82.288 24.384 82 22.432 82 20.256V9.984C82 8.256 82.256 6.752 82.768 5.472C83.344 4.192 84.08 3.168 84.976 2.4C85.936 1.568 86.992 0.960001 88.144 0.575998C89.296 0.191999 90.48 0 91.696 0H92.656C93.808 0 94.96 0.191999 96.112 0.575998C97.264 0.960001 98.288 1.568 99.184 2.4C100.08 3.168 100.784 4.192 101.296 5.472C101.872 6.752 102.16 8.256 102.16 9.984V27.552H94.384Z" fill="#090909"/>
<path d="M134.621 0.575998V67.68H127.614V27.072H127.422L123.102 67.68H116.958L112.734 27.072H112.638V67.68H105.438V0.575998H116.478L119.933 34.848H120.125L123.773 0.575998H134.621Z" fill="#090909"/>
<path d="M149.507 50.4H144.899L143.555 67.68H136.163L142.019 0.575998H152.867L159.107 67.68H150.947L149.507 50.4ZM145.475 43.968H149.027L147.395 23.904H147.107L145.475 43.968Z" fill="#090909"/>
<path d="M181.587 27.648C181.587 29.696 181.267 31.232 180.627 32.256C179.987 33.216 179.187 33.856 178.227 34.176C179.187 34.432 179.987 35.072 180.627 36.096C181.267 37.056 181.587 38.56 181.587 40.608V55.104C181.587 59.712 181.746 62.944 182.066 64.8C182.45 66.592 182.707 67.552 182.835 67.68H174.29C173.778 66.912 173.426 65.536 173.234 63.552C173.106 61.568 173.042 58.752 173.042 55.104V41.376C173.042 38.688 172.498 37.344 171.41 37.344H169.202V67.68H160.659V0.575998H172.082C174.77 0.575998 177.01 1.44 178.802 3.168C180.658 4.896 181.587 7.328 181.587 10.464V27.648ZM171.41 31.008C172.498 31.008 173.042 29.728 173.042 27.168V11.808C173.042 9.056 172.434 7.68 171.218 7.68H169.202V31.008H171.41Z" fill="#090909"/>
<path d="M205.486 7.68H198.862V67.68H190.318V7.68H183.694V0.575998H205.486V7.68Z" fill="#090909"/>
<path d="M225.225 14.1646H220.436V59.5696H214.861V14.1646H210V9.43038H225.225V14.1646Z" fill="#1A34C0"/>
<path d="M232.141 14.1646V32.384H237.001V36.616H232.141V54.8354H238.788V59.5696H226.565V9.43038H238.359V14.1646H232.141Z" fill="#1A34C0"/>
<path d="M247.173 60C246.363 60 245.553 59.8565 244.743 59.5696C243.933 59.2827 243.194 58.8523 242.527 58.2785C241.908 57.7046 241.407 56.9634 241.026 56.0549C240.645 55.1463 240.454 54.0464 240.454 52.7553V16.2447C240.454 14.9536 240.645 13.8537 241.026 12.9451C241.407 12.0366 241.908 11.2954 242.527 10.7215C243.194 10.1477 243.933 9.7173 244.743 9.43038C245.553 9.14346 246.363 9 247.173 9H248.46C249.27 9 250.08 9.14346 250.89 9.43038C251.7 9.7173 252.415 10.1477 253.035 10.7215C253.702 11.2954 254.226 12.0366 254.607 12.9451C254.988 13.8537 255.179 14.9536 255.179 16.2447V29.6582H249.604V17.0338C249.604 15.7904 249.461 14.9297 249.175 14.4515C248.889 13.9733 248.484 13.7342 247.96 13.7342H247.674C247.15 13.7342 246.745 13.9972 246.459 14.5232C246.173 15.0014 246.03 15.8622 246.03 17.1055V51.8945C246.03 53.1378 246.173 54.0225 246.459 54.5485C246.745 55.0267 247.15 55.2658 247.674 55.2658H247.96C248.484 55.2658 248.889 55.0267 249.175 54.5485C249.461 54.0225 249.604 53.1378 249.604 51.8945V39.27H255.179V52.7553C255.179 54.0464 254.988 55.1463 254.607 56.0549C254.226 56.9634 253.702 57.7046 253.035 58.2785C252.415 58.8523 251.7 59.2827 250.89 59.5696C250.08 59.8565 249.27 60 248.46 60H247.173Z" fill="#1A34C0"/>
<path d="M272 9.43038V59.5696H266.425V36.616H262.994V59.5696H257.418V9.43038H262.994V32.4557H266.425V9.43038H272Z" fill="#1A34C0"/>
<line x1="210" y1="1.5" x2="272" y2="1.5" stroke="#1A34C0"/>
<line x1="210" y1="67.5" x2="272" y2="67.5" stroke="#1A34C0"/>
</svg>
