<svg width="118" height="118" viewBox="0 0 118 118" fill="none" xmlns="http://www.w3.org/2000/svg">
<path d="M56.7636 13.7401L94.2578 31.1557C98.7762 33.2545 101.429 38.0241 100.83 42.9699L95.8527 84.0108C95.2529 88.9566 91.5367 92.9538 86.6475 93.9118L46.0774 101.861C41.1883 102.819 36.2383 100.52 33.8165 96.1657L13.7197 60.0376C11.2978 55.6838 11.9548 50.2656 15.3472 46.6169L43.4968 16.3395C46.8891 12.6907 52.2451 11.6413 56.7636 13.7401Z" fill="url(#paint0_linear_107_14)" stroke="#7EA2FF"/>
<g style="mix-blend-mode:overlay">
<mask id="mask0_107_14" style="mask-type:alpha" maskUnits="userSpaceOnUse" x="11" y="12" width="91" height="91">
<path d="M56.7636 13.7401L94.2578 31.1557C98.7762 33.2545 101.429 38.0241 100.83 42.9699L95.8527 84.0108C95.2529 88.9566 91.5367 92.9538 86.6475 93.9118L46.0774 101.861C41.1883 102.819 36.2383 100.52 33.8165 96.1657L13.7197 60.0376C11.2978 55.6838 11.9548 50.2656 15.3472 46.6169L43.4968 16.3395C46.8891 12.6907 52.2451 11.6413 56.7636 13.7401Z" fill="url(#paint1_linear_107_14)" stroke="#7EA2FF"/>
</mask>
<g mask="url(#mask0_107_14)">
<path d="M19 73.754C19.1288 97.6129 37.8084 107 58.9356 107C79.161 107 99 99.4382 99 75.8401C99 59.0215 85.6022 52.7634 72.3333 48.9825C58.9356 45.2016 45.6667 43.8979 45.6667 36.7271C45.6667 30.5995 52.1079 28.7742 57.2609 28.7742C64.6039 28.7742 72.4622 31.5121 72.0757 39.9866H96.037C95.9082 18.996 77.4863 10 59.1932 10C41.9308 10 21.7053 17.953 21.7053 38.2917C21.7053 55.371 35.4895 61.3683 48.6296 65.1492C61.8985 68.9301 75.0386 70.4946 75.0386 78.7083C75.0386 85.6183 67.5668 88.2258 60.3527 88.2258C50.1755 88.2258 43.4766 84.7056 42.9614 73.754H19Z" fill="white"/>
</g>
</g>
<path d="M56.7636 13.7401L94.2578 31.1557C98.7762 33.2545 101.429 38.0241 100.83 42.9699L95.8527 84.0108C95.2529 88.9566 91.5367 92.9538 86.6475 93.9118L46.0774 101.861C41.1883 102.819 36.2383 100.52 33.8165 96.1657L13.7197 60.0376C11.2978 55.6838 11.9548 50.2656 15.3472 46.6169L43.4968 16.3395C46.8891 12.6907 52.2451 11.6413 56.7636 13.7401Z" stroke="#7EA2FF"/>
<defs>
<linearGradient id="paint0_linear_107_14" x1="16.4816" y1="18.0865" x2="96.4561" y2="100.142" gradientUnits="userSpaceOnUse">
<stop stop-color="#1455FB"/>
<stop offset="1" stop-color="#011851"/>
</linearGradient>
<linearGradient id="paint1_linear_107_14" x1="16.4816" y1="18.0865" x2="96.4561" y2="100.142" gradientUnits="userSpaceOnUse">
<stop stop-color="#1455FB"/>
<stop offset="1" stop-color="#011851"/>
</linearGradient>
</defs>
</svg>
