<svg width="94" height="19" viewBox="0 0 94 19" fill="none" xmlns="http://www.w3.org/2000/svg">
<path d="M28.0227 7C27.9924 6.62121 27.8504 6.32576 27.5966 6.11364C27.3466 5.90151 26.9659 5.79545 26.4545 5.79545C26.1288 5.79545 25.8617 5.83523 25.6534 5.91477C25.4489 5.99053 25.2973 6.0947 25.1989 6.22727C25.1004 6.35985 25.0492 6.51136 25.0455 6.68182C25.0379 6.82197 25.0625 6.94886 25.1193 7.0625C25.1799 7.17235 25.2746 7.27273 25.4034 7.36364C25.5322 7.45076 25.697 7.5303 25.8977 7.60227C26.0985 7.67424 26.3371 7.73864 26.6136 7.79545L27.5682 8C28.2121 8.13636 28.7633 8.31629 29.2216 8.53977C29.6799 8.76326 30.0549 9.02652 30.3466 9.32955C30.6383 9.62879 30.8523 9.96591 30.9886 10.3409C31.1288 10.7159 31.2008 11.125 31.2045 11.5682C31.2008 12.3333 31.0095 12.9811 30.6307 13.5114C30.2519 14.0417 29.7102 14.4451 29.0057 14.7216C28.3049 14.9981 27.4621 15.1364 26.4773 15.1364C25.4659 15.1364 24.5833 14.9867 23.8295 14.6875C23.0795 14.3883 22.4962 13.928 22.0795 13.3068C21.6667 12.6818 21.4583 11.8826 21.4545 10.9091H24.4545C24.4735 11.2652 24.5625 11.5644 24.7216 11.8068C24.8807 12.0492 25.1042 12.233 25.392 12.358C25.6837 12.483 26.0303 12.5455 26.4318 12.5455C26.7689 12.5455 27.0511 12.5038 27.2784 12.4205C27.5057 12.3371 27.678 12.2216 27.7955 12.0739C27.9129 11.9261 27.9735 11.7576 27.9773 11.5682C27.9735 11.3902 27.9148 11.2348 27.8011 11.1023C27.6913 10.9659 27.5095 10.8447 27.2557 10.7386C27.0019 10.6288 26.6591 10.5265 26.2273 10.4318L25.0682 10.1818C24.0379 9.95833 23.2254 9.58523 22.6307 9.0625C22.0398 8.53598 21.7462 7.81818 21.75 6.90909C21.7462 6.17045 21.9432 5.52462 22.3409 4.97159C22.7424 4.41477 23.2973 3.98106 24.0057 3.67045C24.7178 3.35985 25.5341 3.20455 26.4545 3.20455C27.3939 3.20455 28.2064 3.36174 28.892 3.67614C29.5777 3.99053 30.1061 4.43371 30.4773 5.00568C30.8523 5.57386 31.0417 6.23864 31.0455 7H28.0227ZM31.3317 15V6.27273H34.309V7.93182H34.3999C34.5817 7.38636 34.8923 6.95455 35.3317 6.63636C35.7711 6.31818 36.2938 6.15909 36.8999 6.15909C37.5135 6.15909 38.0419 6.32197 38.4851 6.64773C38.9283 6.9697 39.1953 7.39773 39.2863 7.93182H39.3772C39.5249 7.39773 39.8393 6.9697 40.3203 6.64773C40.8014 6.32197 41.3658 6.15909 42.0135 6.15909C42.8506 6.15909 43.5287 6.42803 44.0476 6.96591C44.5703 7.50379 44.8317 8.2197 44.8317 9.11364V15H41.6953V9.90909C41.6953 9.52652 41.5988 9.22727 41.4056 9.01136C41.2124 8.79167 40.9529 8.68182 40.6272 8.68182C40.3052 8.68182 40.0495 8.79167 39.8601 9.01136C39.6745 9.22727 39.5817 9.52652 39.5817 9.90909V15H36.5817V9.90909C36.5817 9.52652 36.4851 9.22727 36.2919 9.01136C36.0988 8.79167 35.8393 8.68182 35.5135 8.68182C35.2976 8.68182 35.112 8.73106 34.9567 8.82955C34.8014 8.92803 34.6802 9.07008 34.5931 9.25568C34.5097 9.4375 34.4681 9.6553 34.4681 9.90909V15H31.3317ZM47.6904 15.1364C47.1336 15.1364 46.6412 15.0455 46.2131 14.8636C45.7889 14.678 45.4555 14.3977 45.2131 14.0227C44.9707 13.6477 44.8495 13.1705 44.8495 12.5909C44.8495 12.1136 44.9309 11.7064 45.0938 11.3693C45.2567 11.0284 45.484 10.75 45.7756 10.5341C46.0673 10.3182 46.4063 10.1534 46.7927 10.0398C47.1828 9.92614 47.6033 9.85227 48.054 9.81818C48.5427 9.7803 48.9347 9.73485 49.2302 9.68182C49.5294 9.625 49.7453 9.54735 49.8779 9.44886C50.0105 9.34659 50.0768 9.21212 50.0768 9.04545V9.02273C50.0768 8.79545 49.9896 8.62121 49.8154 8.5C49.6412 8.37879 49.4177 8.31818 49.1449 8.31818C48.8457 8.31818 48.6014 8.38447 48.412 8.51705C48.2264 8.64583 48.1146 8.8447 48.0768 9.11364H45.1904C45.2283 8.58333 45.3968 8.0947 45.6961 7.64773C45.9991 7.19697 46.4404 6.83712 47.0199 6.56818C47.5995 6.29545 48.323 6.15909 49.1904 6.15909C49.8154 6.15909 50.376 6.23295 50.8722 6.38068C51.3684 6.52462 51.7908 6.72727 52.1393 6.98864C52.4877 7.24621 52.7529 7.54924 52.9347 7.89773C53.1203 8.24242 53.2131 8.61742 53.2131 9.02273V15H50.2813V13.7727H50.2131C50.0389 14.0985 49.8268 14.3617 49.5768 14.5625C49.3305 14.7633 49.0484 14.9091 48.7302 15C48.4158 15.0909 48.0692 15.1364 47.6904 15.1364ZM48.7131 13.1591C48.9518 13.1591 49.1752 13.1098 49.3836 13.0114C49.5957 12.9129 49.768 12.7708 49.9006 12.5852C50.0332 12.3996 50.0995 12.1742 50.0995 11.9091V11.1818C50.0162 11.2159 49.9271 11.2481 49.8324 11.2784C49.7415 11.3087 49.643 11.3371 49.537 11.3636C49.4347 11.3902 49.3249 11.4148 49.2074 11.4375C49.0938 11.4602 48.9745 11.4811 48.8495 11.5C48.6071 11.5379 48.4082 11.6004 48.2529 11.6875C48.1014 11.7708 47.9877 11.875 47.912 12C47.84 12.1212 47.804 12.2576 47.804 12.4091C47.804 12.6515 47.8893 12.8371 48.0597 12.9659C48.2302 13.0947 48.448 13.1591 48.7131 13.1591ZM53.5917 15V6.27273H56.6372V7.93182H56.7281C56.8872 7.31818 57.1391 6.86932 57.4837 6.58523C57.8322 6.30114 58.2394 6.15909 58.7053 6.15909C58.8417 6.15909 58.9762 6.17045 59.1087 6.19318C59.2451 6.21212 59.3758 6.24053 59.5008 6.27841V8.95455C59.3455 8.90152 59.1542 8.86174 58.9269 8.83523C58.6997 8.80871 58.5046 8.79545 58.3417 8.79545C58.0349 8.79545 57.7584 8.86553 57.5122 9.00568C57.2697 9.14205 57.0784 9.33523 56.9383 9.58523C56.7981 9.83144 56.7281 10.1212 56.7281 10.4545V15H53.5917ZM58.1393 5.90909V3.36364H68.253V5.90909H64.753V15H61.6393V5.90909H58.1393ZM71.2835 15.1591C70.3517 15.1591 69.5487 14.9811 68.8744 14.625C68.204 14.2652 67.6869 13.75 67.3233 13.0795C66.9634 12.4053 66.7835 11.5985 66.7835 10.6591C66.7835 9.75758 66.9653 8.9697 67.329 8.29545C67.6926 7.62121 68.2059 7.09659 68.8688 6.72159C69.5316 6.34659 70.3138 6.15909 71.2153 6.15909C71.8744 6.15909 72.471 6.26136 73.0051 6.46591C73.5392 6.67045 73.9956 6.9678 74.3744 7.35795C74.7532 7.74432 75.0449 8.21402 75.2494 8.76705C75.454 9.32008 75.5563 9.94318 75.5563 10.6364V11.3636H67.7608V9.63636H72.6699C72.6661 9.38636 72.6017 9.16667 72.4767 8.97727C72.3555 8.78409 72.1907 8.63447 71.9824 8.52841C71.7778 8.41856 71.5449 8.36364 71.2835 8.36364C71.0297 8.36364 70.7968 8.41856 70.5847 8.52841C70.3725 8.63447 70.2021 8.7822 70.0733 8.97159C69.9483 9.16098 69.882 9.38258 69.8744 9.63636V11.5C69.8744 11.7803 69.9331 12.0303 70.0506 12.25C70.168 12.4697 70.3366 12.642 70.5563 12.767C70.7759 12.892 71.0411 12.9545 71.3517 12.9545C71.5676 12.9545 71.7646 12.9242 71.9426 12.8636C72.1244 12.803 72.2797 12.7159 72.4085 12.6023C72.5373 12.4848 72.632 12.3447 72.6926 12.1818H75.5563C75.4578 12.7879 75.2248 13.3144 74.8574 13.7614C74.49 14.2045 74.0032 14.5492 73.3972 14.7955C72.7949 15.0379 72.0903 15.1591 71.2835 15.1591ZM79.9206 15.1591C78.9737 15.1591 78.163 14.9716 77.4888 14.5966C76.8146 14.2178 76.2975 13.6913 75.9377 13.017C75.5778 12.339 75.3979 11.553 75.3979 10.6591C75.3979 9.76515 75.5778 8.98106 75.9377 8.30682C76.2975 7.62879 76.8146 7.10227 77.4888 6.72727C78.163 6.34848 78.9737 6.15909 79.9206 6.15909C80.7767 6.15909 81.5172 6.31439 82.1422 6.625C82.771 6.93182 83.2577 7.36742 83.6024 7.93182C83.9471 8.49242 84.1214 9.15152 84.1252 9.90909H81.2161C81.1744 9.45076 81.0418 9.10227 80.8184 8.86364C80.5987 8.62121 80.3146 8.5 79.9661 8.5C79.6934 8.5 79.4547 8.57955 79.2502 8.73864C79.0456 8.89394 78.8865 9.13068 78.7729 9.44886C78.6593 9.76326 78.6024 10.1591 78.6024 10.6364C78.6024 11.1136 78.6593 11.5114 78.7729 11.8295C78.8865 12.1439 79.0456 12.3807 79.2502 12.5398C79.4547 12.6951 79.6934 12.7727 79.9661 12.7727C80.1971 12.7727 80.4017 12.7197 80.5797 12.6136C80.7577 12.5038 80.9017 12.3447 81.0115 12.1364C81.1252 11.9242 81.1934 11.6667 81.2161 11.3636H84.1252C84.1138 12.1326 83.9377 12.803 83.5968 13.375C83.2559 13.9432 82.7729 14.3826 82.1479 14.6932C81.5267 15.0038 80.7843 15.1591 79.9206 15.1591ZM87.4356 10.0909V15H84.2992V3.36364H87.3219V7.93182H87.4128C87.6098 7.375 87.9375 6.94129 88.3958 6.63068C88.8541 6.31629 89.4053 6.15909 90.0492 6.15909C90.6666 6.15909 91.2026 6.29924 91.6572 6.57955C92.1155 6.85985 92.4697 7.24621 92.7197 7.73864C92.9734 8.23106 93.0984 8.79545 93.0947 9.43182V15H89.9583V10.0909C89.9621 9.65909 89.8541 9.32008 89.6344 9.07386C89.4185 8.82765 89.1098 8.70455 88.7083 8.70455C88.4545 8.70455 88.231 8.76136 88.0378 8.875C87.8484 8.98485 87.7007 9.14394 87.5947 9.35227C87.4924 9.55682 87.4394 9.80303 87.4356 10.0909Z" fill="black"/>
<path d="M6.40612 7.45283C7.57911 4.65684 11.6098 3.91773 13.7002 6.13703C15.8104 8.10053 15.2611 11.9565 12.7044 13.2565C12.9448 11.6836 12.414 10.0588 11.3503 8.94814C10.1325 7.6238 8.16132 7.02935 6.40612 7.45217V7.45283ZM12.0866 12.4964C12.0879 10.7729 11.1093 9.23155 9.60104 8.4714C10.2649 11.9125 6.93959 15.1648 3.48782 14.4014C4.21822 15.9499 5.75279 16.9777 7.5284 16.9988C10.0067 17.0586 12.1202 14.9399 12.086 12.4964H12.0866ZM6.60041 11.5672C3.76049 11.076 1.80376 8.06765 2.53811 5.25851C-0.210923 6.45003 -0.884027 10.4888 1.29795 12.5056C3.26258 14.5868 7.01797 14.091 8.38063 11.5962C7.80237 11.6889 7.17274 11.677 6.60107 11.5672H6.60041ZM3.06566 6.48291C3.06566 8.16761 3.99759 9.67738 5.4518 10.4566C4.56531 6.95439 7.9262 3.46203 11.486 4.2373C9.21247 0.275446 3.05578 1.91741 3.06566 6.48357V6.48291Z" fill="#1A34C0"/>
</svg>
