<svg width="15" height="15" viewBox="0 0 15 15" fill="none" xmlns="http://www.w3.org/2000/svg">
<path d="M6.40612 5.45283C7.57911 2.65684 11.6098 1.91773 13.7002 4.13703C15.8104 6.10053 15.2611 9.95652 12.7044 11.2565C12.9448 9.68363 12.414 8.05878 11.3503 6.94814C10.1325 5.6238 8.16132 5.02935 6.40612 5.45217V5.45283ZM12.0866 10.4964C12.0879 8.77289 11.1093 7.23155 9.60104 6.4714C10.2649 9.91247 6.93959 13.1648 3.48782 12.4014C4.21822 13.9499 5.75279 14.9777 7.5284 14.9988C10.0067 15.0586 12.1202 12.9399 12.086 10.4964H12.0866ZM6.60041 9.56723C3.76049 9.07603 1.80376 6.06765 2.53811 3.25851C-0.210923 4.45003 -0.884027 8.48882 1.29795 10.5056C3.26258 12.5868 7.01797 12.091 8.38063 9.59618C7.80237 9.68889 7.17274 9.67704 6.60107 9.56723H6.60041ZM3.06566 4.48291C3.06566 6.16761 3.99759 7.67738 5.4518 8.4566C4.56531 4.95439 7.9262 1.46203 11.486 2.2373C9.21247 -1.72455 3.05578 -0.0825925 3.06566 4.48357V4.48291Z" fill="#1A34C0"/>
</svg>
